<mxfile host="app.diagrams.net" agent="Mozilla/5.0 (Windows NT 10.0; Win64; x64) AppleWebKit/537.36 (KHTML, like Gecko) Chrome/129.0.0.0 Safari/537.36" version="24.7.17">
  <diagram name="Halaman-1" id="5BV0G8qkuGDg6VTlMiNT">
    <mxGraphModel dx="3781" dy="2443" grid="1" gridSize="10" guides="1" tooltips="1" connect="1" arrows="1" fold="1" page="1" pageScale="1" pageWidth="827" pageHeight="1169" math="0" shadow="0">
      <root>
        <mxCell id="0" />
        <mxCell id="1" parent="0" />
        <mxCell id="i5II0Y-8SqH7jO1AIGfR-1" value="Start" style="whiteSpace=wrap;strokeWidth=2;" parent="1" vertex="1">
          <mxGeometry x="1987" width="95" height="49" as="geometry" />
        </mxCell>
        <mxCell id="i5II0Y-8SqH7jO1AIGfR-2" value="Display Menu" style="whiteSpace=wrap;strokeWidth=2;" parent="1" vertex="1">
          <mxGeometry x="1958" y="99" width="153" height="49" as="geometry" />
        </mxCell>
        <mxCell id="i5II0Y-8SqH7jO1AIGfR-3" value="Choose Menu" style="rhombus;strokeWidth=2;whiteSpace=wrap;" parent="1" vertex="1">
          <mxGeometry x="1261" y="197" width="142" height="142" as="geometry" />
        </mxCell>
        <mxCell id="i5II0Y-8SqH7jO1AIGfR-4" value="Add Fish" style="whiteSpace=wrap;strokeWidth=2;" parent="1" vertex="1">
          <mxGeometry x="-33" y="412" width="121" height="49" as="geometry" />
        </mxCell>
        <mxCell id="i5II0Y-8SqH7jO1AIGfR-5" value="Display All Fish" style="whiteSpace=wrap;strokeWidth=2;" parent="1" vertex="1">
          <mxGeometry x="212" y="412" width="167" height="49" as="geometry" />
        </mxCell>
        <mxCell id="i5II0Y-8SqH7jO1AIGfR-6" value="Update Fish" style="whiteSpace=wrap;strokeWidth=2;" parent="1" vertex="1">
          <mxGeometry x="1145" y="412" width="145" height="49" as="geometry" />
        </mxCell>
        <mxCell id="i5II0Y-8SqH7jO1AIGfR-7" value="Delete Fish" style="whiteSpace=wrap;strokeWidth=2;" parent="1" vertex="1">
          <mxGeometry x="1376" y="412" width="140" height="49" as="geometry" />
        </mxCell>
        <mxCell id="i5II0Y-8SqH7jO1AIGfR-8" value="Exit" style="whiteSpace=wrap;strokeWidth=2;" parent="1" vertex="1">
          <mxGeometry x="1793" y="412" width="88" height="49" as="geometry" />
        </mxCell>
        <mxCell id="i5II0Y-8SqH7jO1AIGfR-9" value="Input Fish Type" style="whiteSpace=wrap;strokeWidth=2;" parent="1" vertex="1">
          <mxGeometry x="-57" y="575" width="168" height="49" as="geometry" />
        </mxCell>
        <mxCell id="i5II0Y-8SqH7jO1AIGfR-10" value="Input Fish Price" style="whiteSpace=wrap;strokeWidth=2;" parent="1" vertex="1">
          <mxGeometry x="-58" y="762" width="171" height="49" as="geometry" />
        </mxCell>
        <mxCell id="i5II0Y-8SqH7jO1AIGfR-11" value="Input Fish Stock" style="whiteSpace=wrap;strokeWidth=2;" parent="1" vertex="1">
          <mxGeometry x="-60" y="892" width="174" height="49" as="geometry" />
        </mxCell>
        <mxCell id="i5II0Y-8SqH7jO1AIGfR-12" value="Add Fish to List" style="whiteSpace=wrap;strokeWidth=2;" parent="1" vertex="1">
          <mxGeometry x="372" y="1054" width="171" height="49" as="geometry" />
        </mxCell>
        <mxCell id="i5II0Y-8SqH7jO1AIGfR-13" value="Is Fish List Empty?" style="rhombus;strokeWidth=2;whiteSpace=wrap;" parent="1" vertex="1">
          <mxGeometry x="206" y="510" width="179" height="179" as="geometry" />
        </mxCell>
        <mxCell id="i5II0Y-8SqH7jO1AIGfR-14" value="Display No Data Found" style="whiteSpace=wrap;strokeWidth=2;" parent="1" vertex="1">
          <mxGeometry x="162" y="762" width="220" height="49" as="geometry" />
        </mxCell>
        <mxCell id="i5II0Y-8SqH7jO1AIGfR-15" value="Display All Fish Data" style="whiteSpace=wrap;strokeWidth=2;" parent="1" vertex="1">
          <mxGeometry x="433" y="762" width="204" height="49" as="geometry" />
        </mxCell>
        <mxCell id="i5II0Y-8SqH7jO1AIGfR-16" value="Is Fish List Empty?" style="rhombus;strokeWidth=2;whiteSpace=wrap;" parent="1" vertex="1">
          <mxGeometry x="1128" y="510" width="179" height="179" as="geometry" />
        </mxCell>
        <mxCell id="i5II0Y-8SqH7jO1AIGfR-17" value="Display No Data to Update" style="whiteSpace=wrap;strokeWidth=2;" parent="1" vertex="1">
          <mxGeometry x="687" y="762" width="248" height="49" as="geometry" />
        </mxCell>
        <mxCell id="i5II0Y-8SqH7jO1AIGfR-18" value="Input Fish Type to Update" style="whiteSpace=wrap;strokeWidth=2;" parent="1" vertex="1">
          <mxGeometry x="1398" y="762" width="244" height="49" as="geometry" />
        </mxCell>
        <mxCell id="i5II0Y-8SqH7jO1AIGfR-19" value="Find Fish" style="rhombus;strokeWidth=2;whiteSpace=wrap;" parent="1" vertex="1">
          <mxGeometry x="1463" y="860" width="112" height="112" as="geometry" />
        </mxCell>
        <mxCell id="i5II0Y-8SqH7jO1AIGfR-20" value="Input New Type, Price, Stock" style="whiteSpace=wrap;strokeWidth=2;" parent="1" vertex="1">
          <mxGeometry x="1208" y="1045" width="223" height="66" as="geometry" />
        </mxCell>
        <mxCell id="i5II0Y-8SqH7jO1AIGfR-21" value="Update Fish Data" style="whiteSpace=wrap;strokeWidth=2;" parent="1" vertex="1">
          <mxGeometry x="2075" y="1162" width="182" height="49" as="geometry" />
        </mxCell>
        <mxCell id="i5II0Y-8SqH7jO1AIGfR-22" value="Display Fish Not Found" style="whiteSpace=wrap;strokeWidth=2;" parent="1" vertex="1">
          <mxGeometry x="1831" y="1054" width="222" height="49" as="geometry" />
        </mxCell>
        <mxCell id="i5II0Y-8SqH7jO1AIGfR-23" value="Is Fish List Empty?" style="rhombus;strokeWidth=2;whiteSpace=wrap;" parent="1" vertex="1">
          <mxGeometry x="1357" y="510" width="179" height="179" as="geometry" />
        </mxCell>
        <mxCell id="i5II0Y-8SqH7jO1AIGfR-24" value="Display No Data to Delete" style="whiteSpace=wrap;strokeWidth=2;" parent="1" vertex="1">
          <mxGeometry x="1104" y="762" width="244" height="49" as="geometry" />
        </mxCell>
        <mxCell id="i5II0Y-8SqH7jO1AIGfR-25" value="Input Fish Type to Delete" style="whiteSpace=wrap;strokeWidth=2;" parent="1" vertex="1">
          <mxGeometry x="2032" y="762" width="239" height="49" as="geometry" />
        </mxCell>
        <mxCell id="i5II0Y-8SqH7jO1AIGfR-26" value="Find Fish" style="rhombus;strokeWidth=2;whiteSpace=wrap;" parent="1" vertex="1">
          <mxGeometry x="2096" y="860" width="112" height="112" as="geometry" />
        </mxCell>
        <mxCell id="i5II0Y-8SqH7jO1AIGfR-27" value="Delete Fish from List" style="whiteSpace=wrap;strokeWidth=2;" parent="1" vertex="1">
          <mxGeometry x="2124" y="1054" width="210" height="49" as="geometry" />
        </mxCell>
        <mxCell id="i5II0Y-8SqH7jO1AIGfR-28" value="Display Fish Not Found" style="whiteSpace=wrap;strokeWidth=2;" parent="1" vertex="1">
          <mxGeometry x="2384" y="1054" width="222" height="49" as="geometry" />
        </mxCell>
        <mxCell id="i5II0Y-8SqH7jO1AIGfR-29" value="Display Thank You Message" style="whiteSpace=wrap;strokeWidth=2;" parent="1" vertex="1">
          <mxGeometry x="1711" y="575" width="251" height="49" as="geometry" />
        </mxCell>
        <mxCell id="i5II0Y-8SqH7jO1AIGfR-30" value="End" style="whiteSpace=wrap;strokeWidth=2;" parent="1" vertex="1">
          <mxGeometry x="1794" y="762" width="86" height="49" as="geometry" />
        </mxCell>
        <mxCell id="i5II0Y-8SqH7jO1AIGfR-31" value="" style="curved=1;startArrow=none;endArrow=block;exitX=0.5;exitY=0.99;entryX=0.5;entryY=-0.01;rounded=0;" parent="1" source="i5II0Y-8SqH7jO1AIGfR-1" target="i5II0Y-8SqH7jO1AIGfR-2" edge="1">
          <mxGeometry relative="1" as="geometry">
            <Array as="points" />
          </mxGeometry>
        </mxCell>
        <mxCell id="i5II0Y-8SqH7jO1AIGfR-32" value="" style="curved=1;startArrow=none;endArrow=block;exitX=0;exitY=0.6;entryX=0.5;entryY=0;rounded=0;" parent="1" source="i5II0Y-8SqH7jO1AIGfR-2" target="i5II0Y-8SqH7jO1AIGfR-3" edge="1">
          <mxGeometry relative="1" as="geometry">
            <Array as="points">
              <mxPoint x="1332" y="172" />
            </Array>
          </mxGeometry>
        </mxCell>
        <mxCell id="i5II0Y-8SqH7jO1AIGfR-33" value="1" style="curved=1;startArrow=none;endArrow=block;exitX=0;exitY=0.54;entryX=0.5;entryY=-0.01;rounded=0;" parent="1" source="i5II0Y-8SqH7jO1AIGfR-3" target="i5II0Y-8SqH7jO1AIGfR-4" edge="1">
          <mxGeometry relative="1" as="geometry">
            <Array as="points">
              <mxPoint x="27" y="375" />
            </Array>
          </mxGeometry>
        </mxCell>
        <mxCell id="i5II0Y-8SqH7jO1AIGfR-34" value="2" style="curved=1;startArrow=none;endArrow=block;exitX=0;exitY=0.55;entryX=0.5;entryY=-0.01;rounded=0;" parent="1" source="i5II0Y-8SqH7jO1AIGfR-3" target="i5II0Y-8SqH7jO1AIGfR-5" edge="1">
          <mxGeometry relative="1" as="geometry">
            <Array as="points">
              <mxPoint x="295" y="375" />
            </Array>
          </mxGeometry>
        </mxCell>
        <mxCell id="i5II0Y-8SqH7jO1AIGfR-35" value="3" style="curved=1;startArrow=none;endArrow=block;exitX=0;exitY=0.97;entryX=0.5;entryY=-0.01;rounded=0;" parent="1" source="i5II0Y-8SqH7jO1AIGfR-3" target="i5II0Y-8SqH7jO1AIGfR-6" edge="1">
          <mxGeometry relative="1" as="geometry">
            <Array as="points">
              <mxPoint x="1217" y="375" />
            </Array>
          </mxGeometry>
        </mxCell>
        <mxCell id="i5II0Y-8SqH7jO1AIGfR-36" value="4" style="curved=1;startArrow=none;endArrow=block;exitX=1;exitY=0.97;entryX=0.5;entryY=-0.01;rounded=0;" parent="1" source="i5II0Y-8SqH7jO1AIGfR-3" target="i5II0Y-8SqH7jO1AIGfR-7" edge="1">
          <mxGeometry relative="1" as="geometry">
            <Array as="points">
              <mxPoint x="1446" y="375" />
            </Array>
          </mxGeometry>
        </mxCell>
        <mxCell id="i5II0Y-8SqH7jO1AIGfR-37" value="5" style="curved=1;startArrow=none;endArrow=block;exitX=1;exitY=0.61;entryX=0.5;entryY=-0.01;rounded=0;" parent="1" source="i5II0Y-8SqH7jO1AIGfR-3" target="i5II0Y-8SqH7jO1AIGfR-8" edge="1">
          <mxGeometry relative="1" as="geometry">
            <Array as="points">
              <mxPoint x="1837" y="375" />
            </Array>
          </mxGeometry>
        </mxCell>
        <mxCell id="i5II0Y-8SqH7jO1AIGfR-38" value="" style="curved=1;startArrow=none;endArrow=block;exitX=0.5;exitY=0.99;entryX=0.5;entryY=0.01;rounded=0;" parent="1" source="i5II0Y-8SqH7jO1AIGfR-4" target="i5II0Y-8SqH7jO1AIGfR-9" edge="1">
          <mxGeometry relative="1" as="geometry">
            <Array as="points" />
          </mxGeometry>
        </mxCell>
        <mxCell id="i5II0Y-8SqH7jO1AIGfR-39" value="" style="curved=1;startArrow=none;endArrow=block;exitX=0.5;exitY=1;entryX=0.5;entryY=0;rounded=0;" parent="1" source="i5II0Y-8SqH7jO1AIGfR-9" target="i5II0Y-8SqH7jO1AIGfR-10" edge="1">
          <mxGeometry relative="1" as="geometry">
            <Array as="points" />
          </mxGeometry>
        </mxCell>
        <mxCell id="i5II0Y-8SqH7jO1AIGfR-40" value="" style="curved=1;startArrow=none;endArrow=block;exitX=0.5;exitY=0.99;entryX=0.5;entryY=0.01;rounded=0;" parent="1" source="i5II0Y-8SqH7jO1AIGfR-10" target="i5II0Y-8SqH7jO1AIGfR-11" edge="1">
          <mxGeometry relative="1" as="geometry">
            <Array as="points" />
          </mxGeometry>
        </mxCell>
        <mxCell id="i5II0Y-8SqH7jO1AIGfR-41" value="" style="curved=1;startArrow=none;endArrow=block;exitX=0.5;exitY=1;entryX=0;entryY=0.22;rounded=0;" parent="1" source="i5II0Y-8SqH7jO1AIGfR-11" target="i5II0Y-8SqH7jO1AIGfR-12" edge="1">
          <mxGeometry relative="1" as="geometry">
            <Array as="points">
              <mxPoint x="27" y="1009" />
            </Array>
          </mxGeometry>
        </mxCell>
        <mxCell id="i5II0Y-8SqH7jO1AIGfR-42" value="" style="curved=1;startArrow=none;endArrow=block;exitX=1;exitY=0.26;entryX=0;entryY=0.56;rounded=0;" parent="1" source="i5II0Y-8SqH7jO1AIGfR-12" target="i5II0Y-8SqH7jO1AIGfR-2" edge="1">
          <mxGeometry relative="1" as="geometry">
            <Array as="points">
              <mxPoint x="971" y="1009" />
              <mxPoint x="971" y="172" />
            </Array>
          </mxGeometry>
        </mxCell>
        <mxCell id="i5II0Y-8SqH7jO1AIGfR-43" value="" style="curved=1;startArrow=none;endArrow=block;exitX=0.5;exitY=0.99;entryX=0.5;entryY=0;rounded=0;" parent="1" source="i5II0Y-8SqH7jO1AIGfR-5" target="i5II0Y-8SqH7jO1AIGfR-13" edge="1">
          <mxGeometry relative="1" as="geometry">
            <Array as="points" />
          </mxGeometry>
        </mxCell>
        <mxCell id="i5II0Y-8SqH7jO1AIGfR-44" value="Yes" style="curved=1;startArrow=none;endArrow=block;exitX=0.41;exitY=1;entryX=0.5;entryY=0;rounded=0;" parent="1" source="i5II0Y-8SqH7jO1AIGfR-13" target="i5II0Y-8SqH7jO1AIGfR-14" edge="1">
          <mxGeometry relative="1" as="geometry">
            <Array as="points">
              <mxPoint x="273" y="725" />
            </Array>
          </mxGeometry>
        </mxCell>
        <mxCell id="i5II0Y-8SqH7jO1AIGfR-45" value="No" style="curved=1;startArrow=none;endArrow=block;exitX=1;exitY=0.98;entryX=0.29;entryY=0;rounded=0;" parent="1" source="i5II0Y-8SqH7jO1AIGfR-13" target="i5II0Y-8SqH7jO1AIGfR-15" edge="1">
          <mxGeometry relative="1" as="geometry">
            <Array as="points">
              <mxPoint x="426" y="725" />
            </Array>
          </mxGeometry>
        </mxCell>
        <mxCell id="i5II0Y-8SqH7jO1AIGfR-46" value="" style="curved=1;startArrow=none;endArrow=block;exitX=0.74;exitY=0;entryX=0;entryY=0.55;rounded=0;" parent="1" source="i5II0Y-8SqH7jO1AIGfR-15" target="i5II0Y-8SqH7jO1AIGfR-2" edge="1">
          <mxGeometry relative="1" as="geometry">
            <Array as="points">
              <mxPoint x="656" y="725" />
              <mxPoint x="656" y="172" />
            </Array>
          </mxGeometry>
        </mxCell>
        <mxCell id="i5II0Y-8SqH7jO1AIGfR-47" value="" style="curved=1;startArrow=none;endArrow=block;exitX=0.5;exitY=0.99;entryX=0.5;entryY=0;rounded=0;" parent="1" source="i5II0Y-8SqH7jO1AIGfR-6" target="i5II0Y-8SqH7jO1AIGfR-16" edge="1">
          <mxGeometry relative="1" as="geometry">
            <Array as="points" />
          </mxGeometry>
        </mxCell>
        <mxCell id="i5II0Y-8SqH7jO1AIGfR-48" value="Yes" style="curved=1;startArrow=none;endArrow=block;exitX=0;exitY=0.66;entryX=0.5;entryY=0;rounded=0;" parent="1" source="i5II0Y-8SqH7jO1AIGfR-16" target="i5II0Y-8SqH7jO1AIGfR-17" edge="1">
          <mxGeometry relative="1" as="geometry">
            <Array as="points">
              <mxPoint x="811" y="725" />
            </Array>
          </mxGeometry>
        </mxCell>
        <mxCell id="i5II0Y-8SqH7jO1AIGfR-49" value="No" style="curved=1;startArrow=none;endArrow=block;exitX=1;exitY=0.71;entryX=0.5;entryY=0;rounded=0;" parent="1" source="i5II0Y-8SqH7jO1AIGfR-16" target="i5II0Y-8SqH7jO1AIGfR-18" edge="1">
          <mxGeometry relative="1" as="geometry">
            <Array as="points">
              <mxPoint x="1520" y="725" />
            </Array>
          </mxGeometry>
        </mxCell>
        <mxCell id="i5II0Y-8SqH7jO1AIGfR-50" value="" style="curved=1;startArrow=none;endArrow=block;exitX=0.5;exitY=0.99;entryX=0.51;entryY=0;rounded=0;" parent="1" source="i5II0Y-8SqH7jO1AIGfR-18" target="i5II0Y-8SqH7jO1AIGfR-19" edge="1">
          <mxGeometry relative="1" as="geometry">
            <Array as="points" />
          </mxGeometry>
        </mxCell>
        <mxCell id="i5II0Y-8SqH7jO1AIGfR-51" value="Found" style="curved=1;startArrow=none;endArrow=block;exitX=0;exitY=0.74;entryX=0.5;entryY=0.01;rounded=0;" parent="1" source="i5II0Y-8SqH7jO1AIGfR-19" target="i5II0Y-8SqH7jO1AIGfR-20" edge="1">
          <mxGeometry relative="1" as="geometry">
            <Array as="points">
              <mxPoint x="1320" y="1009" />
            </Array>
          </mxGeometry>
        </mxCell>
        <mxCell id="i5II0Y-8SqH7jO1AIGfR-52" value="" style="curved=1;startArrow=none;endArrow=block;exitX=0.5;exitY=1.01;entryX=0;entryY=0.38;rounded=0;" parent="1" source="i5II0Y-8SqH7jO1AIGfR-20" target="i5II0Y-8SqH7jO1AIGfR-21" edge="1">
          <mxGeometry relative="1" as="geometry">
            <Array as="points">
              <mxPoint x="1320" y="1137" />
            </Array>
          </mxGeometry>
        </mxCell>
        <mxCell id="i5II0Y-8SqH7jO1AIGfR-53" value="" style="curved=1;startArrow=none;endArrow=block;exitX=1;exitY=0.3;entryX=1;entryY=0.62;rounded=0;" parent="1" source="i5II0Y-8SqH7jO1AIGfR-21" target="i5II0Y-8SqH7jO1AIGfR-2" edge="1">
          <mxGeometry relative="1" as="geometry">
            <Array as="points">
              <mxPoint x="2641" y="1137" />
              <mxPoint x="2641" y="172" />
            </Array>
          </mxGeometry>
        </mxCell>
        <mxCell id="i5II0Y-8SqH7jO1AIGfR-54" value="Not Found" style="curved=1;startArrow=none;endArrow=block;exitX=1.01;exitY=0.7;entryX=0.2;entryY=0;rounded=0;" parent="1" source="i5II0Y-8SqH7jO1AIGfR-19" target="i5II0Y-8SqH7jO1AIGfR-22" edge="1">
          <mxGeometry relative="1" as="geometry">
            <Array as="points">
              <mxPoint x="1754" y="1009" />
            </Array>
          </mxGeometry>
        </mxCell>
        <mxCell id="i5II0Y-8SqH7jO1AIGfR-55" value="" style="curved=1;startArrow=none;endArrow=block;exitX=0.59;exitY=0;entryX=0.38;entryY=0.99;rounded=0;" parent="1" source="i5II0Y-8SqH7jO1AIGfR-22" target="i5II0Y-8SqH7jO1AIGfR-2" edge="1">
          <mxGeometry relative="1" as="geometry">
            <Array as="points">
              <mxPoint x="1997" y="1009" />
              <mxPoint x="1997" y="172" />
            </Array>
          </mxGeometry>
        </mxCell>
        <mxCell id="i5II0Y-8SqH7jO1AIGfR-56" value="" style="curved=1;startArrow=none;endArrow=block;exitX=0.5;exitY=0.99;entryX=0.5;entryY=0;rounded=0;" parent="1" source="i5II0Y-8SqH7jO1AIGfR-7" target="i5II0Y-8SqH7jO1AIGfR-23" edge="1">
          <mxGeometry relative="1" as="geometry">
            <Array as="points" />
          </mxGeometry>
        </mxCell>
        <mxCell id="i5II0Y-8SqH7jO1AIGfR-57" value="Yes" style="curved=1;startArrow=none;endArrow=block;exitX=0;exitY=0.79;entryX=0.5;entryY=0;rounded=0;" parent="1" source="i5II0Y-8SqH7jO1AIGfR-23" target="i5II0Y-8SqH7jO1AIGfR-24" edge="1">
          <mxGeometry relative="1" as="geometry">
            <Array as="points">
              <mxPoint x="1226" y="725" />
            </Array>
          </mxGeometry>
        </mxCell>
        <mxCell id="i5II0Y-8SqH7jO1AIGfR-58" value="No" style="curved=1;startArrow=none;endArrow=block;exitX=1;exitY=0.59;entryX=0.5;entryY=0;rounded=0;" parent="1" source="i5II0Y-8SqH7jO1AIGfR-23" target="i5II0Y-8SqH7jO1AIGfR-25" edge="1">
          <mxGeometry relative="1" as="geometry">
            <Array as="points">
              <mxPoint x="2152" y="725" />
            </Array>
          </mxGeometry>
        </mxCell>
        <mxCell id="i5II0Y-8SqH7jO1AIGfR-59" value="" style="curved=1;startArrow=none;endArrow=block;exitX=0.5;exitY=0.99;entryX=0.5;entryY=0;rounded=0;" parent="1" source="i5II0Y-8SqH7jO1AIGfR-25" target="i5II0Y-8SqH7jO1AIGfR-26" edge="1">
          <mxGeometry relative="1" as="geometry">
            <Array as="points" />
          </mxGeometry>
        </mxCell>
        <mxCell id="i5II0Y-8SqH7jO1AIGfR-60" value="Found" style="curved=1;startArrow=none;endArrow=block;exitX=0.5;exitY=1.01;entryX=0.37;entryY=0;rounded=0;" parent="1" source="i5II0Y-8SqH7jO1AIGfR-26" target="i5II0Y-8SqH7jO1AIGfR-27" edge="1">
          <mxGeometry relative="1" as="geometry">
            <Array as="points">
              <mxPoint x="2152" y="1009" />
            </Array>
          </mxGeometry>
        </mxCell>
        <mxCell id="i5II0Y-8SqH7jO1AIGfR-61" value="" style="curved=1;startArrow=none;endArrow=block;exitX=0.67;exitY=0;entryX=1;entryY=0.75;rounded=0;" parent="1" source="i5II0Y-8SqH7jO1AIGfR-27" target="i5II0Y-8SqH7jO1AIGfR-2" edge="1">
          <mxGeometry relative="1" as="geometry">
            <Array as="points">
              <mxPoint x="2333" y="1009" />
              <mxPoint x="2333" y="172" />
            </Array>
          </mxGeometry>
        </mxCell>
        <mxCell id="i5II0Y-8SqH7jO1AIGfR-62" value="Not Found" style="curved=1;startArrow=none;endArrow=block;exitX=1;exitY=0.7;entryX=0.34;entryY=0;rounded=0;" parent="1" source="i5II0Y-8SqH7jO1AIGfR-26" target="i5II0Y-8SqH7jO1AIGfR-28" edge="1">
          <mxGeometry relative="1" as="geometry">
            <Array as="points">
              <mxPoint x="2391" y="1009" />
            </Array>
          </mxGeometry>
        </mxCell>
        <mxCell id="i5II0Y-8SqH7jO1AIGfR-63" value="" style="curved=1;startArrow=none;endArrow=block;exitX=0.6;exitY=0;entryX=1;entryY=0.64;rounded=0;" parent="1" source="i5II0Y-8SqH7jO1AIGfR-28" target="i5II0Y-8SqH7jO1AIGfR-2" edge="1">
          <mxGeometry relative="1" as="geometry">
            <Array as="points">
              <mxPoint x="2558" y="1009" />
              <mxPoint x="2558" y="172" />
            </Array>
          </mxGeometry>
        </mxCell>
        <mxCell id="i5II0Y-8SqH7jO1AIGfR-64" value="" style="curved=1;startArrow=none;endArrow=block;exitX=0.5;exitY=0.99;entryX=0.5;entryY=0.01;rounded=0;" parent="1" source="i5II0Y-8SqH7jO1AIGfR-8" target="i5II0Y-8SqH7jO1AIGfR-29" edge="1">
          <mxGeometry relative="1" as="geometry">
            <Array as="points" />
          </mxGeometry>
        </mxCell>
        <mxCell id="i5II0Y-8SqH7jO1AIGfR-65" value="" style="curved=1;startArrow=none;endArrow=block;exitX=0.5;exitY=1;entryX=0.5;entryY=0;rounded=0;" parent="1" source="i5II0Y-8SqH7jO1AIGfR-29" target="i5II0Y-8SqH7jO1AIGfR-30" edge="1">
          <mxGeometry relative="1" as="geometry">
            <Array as="points" />
          </mxGeometry>
        </mxCell>
      </root>
    </mxGraphModel>
  </diagram>
</mxfile>
